<?xml version="1.0" encoding="UTF-8"?>
<!DOCTYPE svg PUBLIC "-//W3C//DTD SVG 1.1//EN" "http://www.w3.org/Graphics/SVG/1.1/DTD/svg11.dtd">
<svg version="1.2" width="150mm" height="150mm" viewBox="0 0 15000 15000" preserveAspectRatio="xMidYMid" fill-rule="evenodd" stroke-width="28.222" stroke-linejoin="round" xmlns="http://www.w3.org/2000/svg" xmlns:ooo="http://xml.openoffice.org/svg/export" xmlns:xlink="http://www.w3.org/1999/xlink" xmlns:presentation="http://sun.com/xmlns/staroffice/presentation" xmlns:smil="http://www.w3.org/2001/SMIL20/" xmlns:anim="urn:oasis:names:tc:opendocument:xmlns:animation:1.0" xml:space="preserve">
 <defs class="ClipPathGroup">
  <clipPath id="presentation_clip_path" clipPathUnits="userSpaceOnUse">
   <rect x="0" y="0" width="15000" height="15000"/>
  </clipPath>
  <clipPath id="presentation_clip_path_shrink" clipPathUnits="userSpaceOnUse">
   <rect x="15" y="15" width="14970" height="14970"/>
  </clipPath>
 </defs>
 <defs class="TextShapeIndex">
  <g ooo:slide="id1" ooo:id-list="id3 id4 id5 id6 id7"/>
 </defs>
 <defs class="EmbeddedBulletChars">
  <g id="bullet-char-template(57356)" transform="scale(0.00048828125,-0.00048828125)">
   <path d="M 580,1141 L 1163,571 580,0 -4,571 580,1141 Z"/>
  </g>
  <g id="bullet-char-template(57354)" transform="scale(0.00048828125,-0.00048828125)">
   <path d="M 8,1128 L 1137,1128 1137,0 8,0 8,1128 Z"/>
  </g>
  <g id="bullet-char-template(10146)" transform="scale(0.00048828125,-0.00048828125)">
   <path d="M 174,0 L 602,739 174,1481 1456,739 174,0 Z M 1358,739 L 309,1346 659,739 1358,739 Z"/>
  </g>
  <g id="bullet-char-template(10132)" transform="scale(0.00048828125,-0.00048828125)">
   <path d="M 2015,739 L 1276,0 717,0 1260,543 174,543 174,936 1260,936 717,1481 1274,1481 2015,739 Z"/>
  </g>
  <g id="bullet-char-template(10007)" transform="scale(0.00048828125,-0.00048828125)">
   <path d="M 0,-2 C -7,14 -16,27 -25,37 L 356,567 C 262,823 215,952 215,954 215,979 228,992 255,992 264,992 276,990 289,987 310,991 331,999 354,1012 L 381,999 492,748 772,1049 836,1024 860,1049 C 881,1039 901,1025 922,1006 886,937 835,863 770,784 769,783 710,716 594,584 L 774,223 C 774,196 753,168 711,139 L 727,119 C 717,90 699,76 672,76 641,76 570,178 457,381 L 164,-76 C 142,-110 111,-127 72,-127 30,-127 9,-110 8,-76 1,-67 -2,-52 -2,-32 -2,-23 -1,-13 0,-2 Z"/>
  </g>
  <g id="bullet-char-template(10004)" transform="scale(0.00048828125,-0.00048828125)">
   <path d="M 285,-33 C 182,-33 111,30 74,156 52,228 41,333 41,471 41,549 55,616 82,672 116,743 169,778 240,778 293,778 328,747 346,684 L 369,508 C 377,444 397,411 428,410 L 1163,1116 C 1174,1127 1196,1133 1229,1133 1271,1133 1292,1118 1292,1087 L 1292,965 C 1292,929 1282,901 1262,881 L 442,47 C 390,-6 338,-33 285,-33 Z"/>
  </g>
  <g id="bullet-char-template(9679)" transform="scale(0.00048828125,-0.00048828125)">
   <path d="M 813,0 C 632,0 489,54 383,161 276,268 223,411 223,592 223,773 276,916 383,1023 489,1130 632,1184 813,1184 992,1184 1136,1130 1245,1023 1353,916 1407,772 1407,592 1407,412 1353,268 1245,161 1136,54 992,0 813,0 Z"/>
  </g>
  <g id="bullet-char-template(8226)" transform="scale(0.00048828125,-0.00048828125)">
   <path d="M 346,457 C 273,457 209,483 155,535 101,586 74,649 74,723 74,796 101,859 155,911 209,963 273,989 346,989 419,989 480,963 531,910 582,859 608,796 608,723 608,648 583,586 532,535 482,483 420,457 346,457 Z"/>
  </g>
  <g id="bullet-char-template(8211)" transform="scale(0.00048828125,-0.00048828125)">
   <path d="M -4,459 L 1135,459 1135,606 -4,606 -4,459 Z"/>
  </g>
  <g id="bullet-char-template(61548)" transform="scale(0.00048828125,-0.00048828125)">
   <path d="M 173,740 C 173,903 231,1043 346,1159 462,1274 601,1332 765,1332 928,1332 1067,1274 1183,1159 1299,1043 1357,903 1357,740 1357,577 1299,437 1183,322 1067,206 928,148 765,148 601,148 462,206 346,322 231,437 173,577 173,740 Z"/>
  </g>
 </defs>
 <defs class="TextEmbeddedBitmaps"/>
 <g>
  <g id="id2" class="Master_Slide">
   <g id="bg-id2" class="Background"/>
   <g id="bo-id2" class="BackgroundObjects"/>
  </g>
 </g>
 <g class="SlideGroup">
  <g>
   <g id="container-id1">
    <g id="id1" class="Slide" clip-path="url(#presentation_clip_path)">
     <g class="Page">
      <g class="com.sun.star.drawing.CustomShape">
       <g id="id3">
        <rect class="BoundingBox" stroke="none" fill="none" x="699" y="999" width="13504" height="12804"/>
        <g>
         <defs>
          <linearGradient id="gradient1" x1="4045" y1="1503" x2="10855" y2="13297" gradientUnits="userSpaceOnUse">
           <stop offset="0" style="stop-color:rgb(255,204,0)"/>
           <stop offset="1" style="stop-color:rgb(0,204,0)"/>
          </linearGradient>
         </defs>
         <path style="fill:url(#gradient1)" d="M 7450,2513 L 12604,7400 7450,12287 2296,7400 7450,2513 Z"/>
        </g>
        <g>
         <defs>
          <linearGradient id="gradient2" x1="8595" y1="338" x2="13055" y2="8062" gradientUnits="userSpaceOnUse">
           <stop offset="0" style="stop-color:rgb(255,214,51)"/>
           <stop offset="1" style="stop-color:rgb(43,214,43)"/>
          </linearGradient>
         </defs>
         <path style="fill:url(#gradient2)" d="M 7450,1000 L 14201,7400 12604,7400 7450,2513 7450,1000 Z"/>
        </g>
        <path fill="none" stroke="rgb(0,153,0)" d="M 7450,1000 L 14201,7400 12604,7400 7450,2513 7450,1000 Z"/>
        <path fill="none" stroke="rgb(0,153,0)" d="M 700,1000 L 700,1000 Z"/>
        <path fill="none" stroke="rgb(0,153,0)" d="M 14201,13801 L 14201,13801 Z"/>
        <g>
         <defs>
          <linearGradient id="gradient3" x1="8595" y1="6738" x2="13055" y2="14462" gradientUnits="userSpaceOnUse">
           <stop offset="0" style="stop-color:rgb(178,143,0)"/>
           <stop offset="1" style="stop-color:rgb(0,143,0)"/>
          </linearGradient>
         </defs>
         <path style="fill:url(#gradient3)" d="M 14201,7400 L 7450,13801 7450,12287 12604,7400 14201,7400 Z"/>
        </g>
        <path fill="none" stroke="rgb(0,153,0)" d="M 14201,7400 L 7450,13801 7450,12287 12604,7400 14201,7400 Z"/>
        <path fill="none" stroke="rgb(0,153,0)" d="M 700,1000 L 700,1000 Z"/>
        <path fill="none" stroke="rgb(0,153,0)" d="M 14201,13801 L 14201,13801 Z"/>
        <g>
         <defs>
          <linearGradient id="gradient4" x1="1845" y1="6738" x2="6305" y2="14462" gradientUnits="userSpaceOnUse">
           <stop offset="0" style="stop-color:rgb(255,224,102)"/>
           <stop offset="1" style="stop-color:rgb(90,224,90)"/>
          </linearGradient>
         </defs>
         <path style="fill:url(#gradient4)" d="M 7450,13801 L 700,7400 2296,7400 7450,12287 7450,13801 Z"/>
        </g>
        <path fill="none" stroke="rgb(0,153,0)" d="M 7450,13801 L 700,7400 2296,7400 7450,12287 7450,13801 Z"/>
        <path fill="none" stroke="rgb(0,153,0)" d="M 700,1000 L 700,1000 Z"/>
        <path fill="none" stroke="rgb(0,153,0)" d="M 14201,13801 L 14201,13801 Z"/>
        <g>
         <defs>
          <linearGradient id="gradient5" x1="1845" y1="338" x2="6305" y2="8062" gradientUnits="userSpaceOnUse">
           <stop offset="0" style="stop-color:rgb(255,224,102)"/>
           <stop offset="1" style="stop-color:rgb(90,224,90)"/>
          </linearGradient>
         </defs>
         <path style="fill:url(#gradient5)" d="M 700,7400 L 2296,7400 7450,2513 7450,1000 700,7400 Z"/>
        </g>
        <path fill="none" stroke="rgb(0,153,0)" d="M 700,7400 L 2296,7400 7450,2513 7450,1000 700,7400 Z"/>
        <path fill="none" stroke="rgb(0,153,0)" d="M 700,1000 L 700,1000 Z"/>
        <path fill="none" stroke="rgb(0,153,0)" d="M 14201,13801 L 14201,13801 Z"/>
       </g>
      </g>
      <g class="com.sun.star.drawing.CustomShape">
       <g id="id4">
        <rect class="BoundingBox" stroke="none" fill="none" x="4991" y="5803" width="6412" height="5503"/>
        <path fill="rgb(0,0,0)" stroke="none" d="M 8200,5804 L 8038,5808 7876,5818 7715,5835 7556,5859 7398,5891 7242,5929 7089,5973 6938,6025 6790,6083 6646,6148 6506,6218 6371,6294 6240,6376 6115,6464 5994,6558 5880,6656 5771,6760 5668,6867 5572,6979 5482,7095 5400,7215 5325,7339 5257,7466 5196,7595 5144,7727 5099,7861 5063,7996 5034,8134 5012,8272 5000,8411 4996,8550 5000,8689 5012,8828 5032,8966 5061,9104 5097,9239 5142,9373 5194,9505 5253,9634 5321,9761 5396,9885 5478,10005 5568,10121 5664,10233 5766,10342 5874,10446 5988,10544 6109,10638 6234,10726 6365,10808 6500,10886 6640,10956 6784,11021 6930,11079 7081,11131 7234,11177 7390,11215 7548,11247 7707,11271 7868,11290 8030,11300 8192,11304 8194,9929 8113,9927 8032,9922 7952,9913 7872,9901 7793,9884 7715,9865 7638,9842 7563,9817 7489,9787 7418,9755 7348,9720 7280,9682 7215,9640 7153,9596 7093,9549 7035,9499 6981,9448 6930,9394 6882,9337 6837,9279 6796,9219 6759,9158 6725,9094 6695,9030 6668,8964 6647,8897 6629,8829 6614,8760 6604,8691 6598,8622 6596,8552 6598,8482 6604,8413 6614,8344 6629,8275 6647,8207 6670,8140 6697,8074 6727,8010 6761,7946 6798,7885 6839,7825 6884,7767 6932,7710 6983,7656 7037,7605 7095,7555 7155,7510 7219,7466 7284,7424 7352,7386 7422,7351 7493,7319 7567,7289 7642,7264 7719,7241 7797,7222 7876,7207 7956,7195 8036,7186 8117,7181 8198,7179 8200,5804 Z M 4992,11300 L 4992,11300 Z M 11401,5807 L 11401,5807 Z"/>
        <path fill="none" stroke="rgb(52,101,164)" d="M 8200,5804 L 8038,5808 7876,5818 7715,5835 7556,5859 7398,5891 7242,5929 7089,5973 6938,6025 6790,6083 6646,6148 6506,6218 6371,6294 6240,6376 6115,6464 5994,6558 5880,6656 5771,6760 5668,6867 5572,6979 5482,7095 5400,7215 5325,7339 5257,7466 5196,7595 5144,7727 5099,7861 5063,7996 5034,8134 5012,8272 5000,8411 4996,8550 5000,8689 5012,8828 5032,8966 5061,9104 5097,9239 5142,9373 5194,9505 5253,9634 5321,9761 5396,9885 5478,10005 5568,10121 5664,10233 5766,10342 5874,10446 5988,10544 6109,10638 6234,10726 6365,10808 6500,10886 6640,10956 6784,11021 6930,11079 7081,11131 7234,11177 7390,11215 7548,11247 7707,11271 7868,11290 8030,11300 8192,11304 8194,9929 8113,9927 8032,9922 7952,9913 7872,9901 7793,9884 7715,9865 7638,9842 7563,9817 7489,9787 7418,9755 7348,9720 7280,9682 7215,9640 7153,9596 7093,9549 7035,9499 6981,9448 6930,9394 6882,9337 6837,9279 6796,9219 6759,9158 6725,9094 6695,9030 6668,8964 6647,8897 6629,8829 6614,8760 6604,8691 6598,8622 6596,8552 6598,8482 6604,8413 6614,8344 6629,8275 6647,8207 6670,8140 6697,8074 6727,8010 6761,7946 6798,7885 6839,7825 6884,7767 6932,7710 6983,7656 7037,7605 7095,7555 7155,7510 7219,7466 7284,7424 7352,7386 7422,7351 7493,7319 7567,7289 7642,7264 7719,7241 7797,7222 7876,7207 7956,7195 8036,7186 8117,7181 8198,7179 8200,5804 Z"/>
        <path fill="none" stroke="rgb(52,101,164)" d="M 4992,11300 L 4992,11300 Z"/>
        <path fill="none" stroke="rgb(52,101,164)" d="M 11401,5807 L 11401,5807 Z"/>
       </g>
      </g>
      <g class="com.sun.star.drawing.CustomShape">
       <g id="id5">
        <rect class="BoundingBox" stroke="none" fill="none" x="3598" y="3681" width="6434" height="5503"/>
        <path fill="rgb(255,0,0)" stroke="none" d="M 6800,9182 L 6962,9179 7124,9170 7285,9153 7444,9130 7602,9098 7758,9061 7912,9017 8063,8966 8210,8909 8355,8845 8495,8775 8630,8699 8762,8618 8887,8531 9009,8437 9123,8340 9233,8237 9336,8129 9432,8018 9523,7902 9606,7783 9681,7659 9750,7532 9811,7404 9863,7272 9909,7138 9946,7003 9976,6866 9997,6728 10010,6589 10015,6450 10012,6311 10001,6172 9980,6034 9952,5896 9917,5760 9873,5626 9821,5494 9762,5364 9695,5237 9620,5113 9539,4992 9450,4876 9354,4763 9253,4655 9145,4550 9031,4451 8911,4357 8786,4268 8656,4185 8521,4107 8381,4037 8238,3971 8091,3912 7940,3859 7788,3813 7632,3775 7474,3742 7315,3717 7154,3698 6992,3687 6830,3682 6823,5057 6904,5059 6985,5065 7065,5074 7145,5087 7223,5103 7301,5123 7378,5146 7453,5172 7527,5202 7598,5234 7668,5270 7735,5308 7800,5350 7863,5395 7923,5441 7980,5491 8034,5543 8085,5597 8132,5654 8177,5713 8218,5773 8254,5834 8288,5898 8318,5962 8344,6029 8366,6096 8384,6164 8398,6233 8408,6302 8413,6371 8415,6441 8413,6511 8406,6580 8396,6649 8380,6718 8362,6786 8340,6853 8312,6918 8282,6982 8248,7046 8210,7107 8169,7167 8124,7224 8075,7281 8024,7335 7970,7385 7911,7435 7851,7481 7788,7524 7723,7566 7654,7604 7584,7638 7513,7670 7439,7700 7364,7724 7287,7747 7209,7765 7129,7781 7049,7792 6969,7801 6888,7805 6807,7807 6800,9182 Z M 10030,3700 L 10030,3700 Z M 3599,9165 L 3599,9165 Z"/>
        <path fill="none" stroke="rgb(52,101,164)" d="M 6800,9182 L 6962,9179 7124,9170 7285,9153 7444,9130 7602,9098 7758,9061 7912,9017 8063,8966 8210,8909 8355,8845 8495,8775 8630,8699 8762,8618 8887,8531 9009,8437 9123,8340 9233,8237 9336,8129 9432,8018 9523,7902 9606,7783 9681,7659 9750,7532 9811,7404 9863,7272 9909,7138 9946,7003 9976,6866 9997,6728 10010,6589 10015,6450 10012,6311 10001,6172 9980,6034 9952,5896 9917,5760 9873,5626 9821,5494 9762,5364 9695,5237 9620,5113 9539,4992 9450,4876 9354,4763 9253,4655 9145,4550 9031,4451 8911,4357 8786,4268 8656,4185 8521,4107 8381,4037 8238,3971 8091,3912 7940,3859 7788,3813 7632,3775 7474,3742 7315,3717 7154,3698 6992,3687 6830,3682 6823,5057 6904,5059 6985,5065 7065,5074 7145,5087 7223,5103 7301,5123 7378,5146 7453,5172 7527,5202 7598,5234 7668,5270 7735,5308 7800,5350 7863,5395 7923,5441 7980,5491 8034,5543 8085,5597 8132,5654 8177,5713 8218,5773 8254,5834 8288,5898 8318,5962 8344,6029 8366,6096 8384,6164 8398,6233 8408,6302 8413,6371 8415,6441 8413,6511 8406,6580 8396,6649 8380,6718 8362,6786 8340,6853 8312,6918 8282,6982 8248,7046 8210,7107 8169,7167 8124,7224 8075,7281 8024,7335 7970,7385 7911,7435 7851,7481 7788,7524 7723,7566 7654,7604 7584,7638 7513,7670 7439,7700 7364,7724 7287,7747 7209,7765 7129,7781 7049,7792 6969,7801 6888,7805 6807,7807 6800,9182 Z"/>
        <path fill="none" stroke="rgb(52,101,164)" d="M 10030,3700 L 10030,3700 Z"/>
        <path fill="none" stroke="rgb(52,101,164)" d="M 3599,9165 L 3599,9165 Z"/>
       </g>
      </g>
      <g class="com.sun.star.drawing.CustomShape">
       <g id="id6">
        <rect class="BoundingBox" stroke="none" fill="none" x="7099" y="4199" width="804" height="504"/>
        <path fill="rgb(255,255,255)" stroke="none" d="M 7500,4200 C 7727,4200 7900,4308 7900,4450 7900,4592 7727,4700 7500,4700 7273,4700 7100,4592 7100,4450 7100,4308 7273,4200 7500,4200 Z M 7100,4200 L 7100,4200 Z M 7901,4701 L 7901,4701 Z"/>
        <path fill="none" stroke="rgb(255,255,255)" d="M 7500,4200 C 7727,4200 7900,4308 7900,4450 7900,4592 7727,4700 7500,4700 7273,4700 7100,4592 7100,4450 7100,4308 7273,4200 7500,4200 Z"/>
        <path fill="none" stroke="rgb(255,255,255)" d="M 7100,4200 L 7100,4200 Z"/>
        <path fill="none" stroke="rgb(255,255,255)" d="M 7901,4701 L 7901,4701 Z"/>
       </g>
      </g>
      <g class="com.sun.star.drawing.CustomShape">
       <g id="id7">
        <rect class="BoundingBox" stroke="none" fill="none" x="7099" y="10299" width="804" height="504"/>
        <path fill="rgb(255,255,255)" stroke="none" d="M 7500,10300 C 7727,10300 7900,10408 7900,10550 7900,10692 7727,10800 7500,10800 7273,10800 7100,10692 7100,10550 7100,10408 7273,10300 7500,10300 Z M 7100,10300 L 7100,10300 Z M 7901,10801 L 7901,10801 Z"/>
        <path fill="none" stroke="rgb(255,255,255)" d="M 7500,10300 C 7727,10300 7900,10408 7900,10550 7900,10692 7727,10800 7500,10800 7273,10800 7100,10692 7100,10550 7100,10408 7273,10300 7500,10300 Z"/>
        <path fill="none" stroke="rgb(255,255,255)" d="M 7100,10300 L 7100,10300 Z"/>
        <path fill="none" stroke="rgb(255,255,255)" d="M 7901,10801 L 7901,10801 Z"/>
       </g>
      </g>
     </g>
    </g>
   </g>
  </g>
 </g>
</svg>